<svg xmlns="http://www.w3.org/2000/svg" width="280" height="42" viewBox="0 0 280 42"><path d="M144.5 14.933v3.65h13.3l-2.399 4.44h-10.9v8.286H139V10.493h19.6v4.439h-14.1zm23.8 16.475h-5.5V10.493h13.899c1.5 0 2.801.198 3.801.493 1 .296 1.9.789 2.5 1.283.6.592 1.1 1.282 1.4 2.071.3.79.399 1.677.399 2.762 0 .888-.1 1.677-.399 2.27-.201.691-.601 1.183-1 1.678-.4.493-.9.888-1.4 1.183-.601.297-1.1.593-1.7.791l6.7 8.286h-6.5l-6.2-7.695h-6v7.793zm10.9-14.305c0-.394 0-.788-.2-1.085-.1-.296-.301-.493-.5-.691-.301-.196-.601-.295-1-.394-.4-.098-1-.098-1.601-.098h-7.6v4.439h7.6c.601 0 1.2 0 1.601-.099.399-.098.8-.198 1-.395.3-.197.4-.394.5-.69.2-.197.2-.592.2-.987zm11.4 14.305V10.493h5.5V31.31h-5.5v.098zm34.9-10.458c0 1.382-.1 2.565-.4 3.552-.3 1.086-.7 1.974-1.199 2.664-.501.789-1.101 1.381-1.9 1.973-.7.494-1.5.987-2.4 1.283s-1.899.592-2.899.689c-1.001.198-2.101.198-3.2.198h-13V10.493h13c1.1 0 2.199.098 3.2.198 1 .098 1.999.394 2.899.69.9.296 1.7.789 2.5 1.283.7.493 1.4 1.183 1.9 1.973.5.789.899 1.677 1.2 2.762.199.987.299 2.171.299 3.551zm-5.5 0c0-.985-.101-1.874-.4-2.663-.3-.691-.7-1.382-1.199-1.875-.601-.493-1.301-.789-2.2-1.086-.9-.196-2-.394-3.301-.394H206V26.87h6.899c1.301 0 2.4-.1 3.301-.396a5.11 5.11 0 0 0 2.2-1.086c.6-.493.999-1.085 1.199-1.874.201-.689.401-1.576.401-2.564zm24.8 6.511h-11.4l-1.899 3.947h-6.2L236 10.493h6.2l10.699 20.816h-6.2l-1.899-3.848zm-9.5-4.143h7.5l-3.7-7.695-3.8 7.695zm21.5 8.09l3.2-6.117-9.101-14.798h5.9l5.899 9.866L268 10.493h6.2L263 31.408h-6.2zm-228.1 0V10.591h20.5l-1.1 2.566H31.8v6.215h16.9l-1.1 2.467H31.8v7.004H50l-1.1 2.565H28.7zm38.699 0h-3.2L53.5 10.591H57l8.8 17.561 8.6-17.561h3.5L67.399 31.408zm15.801 0V10.591h20.5l-1.101 2.566H86.3v6.215h16.9l-1.1 2.467H86.3v7.004h18.2l-1.1 2.565H83.2zm47.9 0l-17.4-17.166.1 17.166h-3V10.591h3.2l17.3 17.167-.1-17.167h3.6v20.817h-3.7zm-112-19.435C17.5 10.986 14.8 10 10.4 10c-3.6 0-6 .691-7.3 1.381-.9.493-3.1 1.776-3.1 4.736 0 .691.1 2.171 1.6 3.453 1.6 1.38 3.7 1.578 8 1.973 1.8.197 5.6.395 7.2 1.085 1.2.493 1.9 1.38 1.9 2.565 0 .592-.2 1.874-1.5 2.762-2.1 1.48-5.5 1.381-6.1 1.381-.7 0-3.8 0-6.3-.986-1.5-.592-2.6-1.381-3.1-1.775l-.5-.494L0 29.04l.3.296c.4.297 1.2.79 2.3 1.283 1.1.395 1.9.592 2.4.789C7.4 32 10.1 32 10.7 32c1.4 0 2.7-.099 3.2-.197.8-.099 4.6-.493 6.6-3.059.4-.592 1.101-1.677 1.101-3.453 0-.592-.1-1.973-1.2-3.255-1.1-1.283-2.6-2.071-6.1-2.466-2.5-.296-4.9-.395-7.4-.691-1.3-.099-2.9-.296-3.7-1.48-.2-.395-.4-.887-.4-1.282 0-.888.5-2.17 2.5-2.762.8-.295 2.6-.69 4.8-.69 3.5 0 5.6.985 6.8 1.775.6.395 1.2.987 1.3 1.085l1.1-2.762c.299-.395.099-.593-.201-.79zM277.8 10.493c-1.2 0-2.2.987-2.2 2.171 0 1.183 1 2.17 2.2 2.17s2.2-.987 2.2-2.17c0-1.184-1-2.171-2.2-2.171zm0 4.045c-1 0-1.9-.789-1.9-1.874 0-.987.8-1.875 1.9-1.875 1 0 1.9.789 1.9 1.875-.1 1.085-.9 1.874-1.9 1.874zm.599-1.579c-.1-.098-.2-.098-.3-.197.2 0 .4-.098.5-.198.1-.098.2-.295.2-.394 0-.099 0-.296-.101-.395-.1-.098-.199-.197-.3-.197-.1 0-.3-.098-.499-.098h-1.001v2.269h.5v-.986h.301s.1 0 .1.099c0 0 .101.198.2.296l.3.492h.6l-.3-.492c-.099-.001-.099-.099-.2-.199zm-.699-.493h-.301v-.592h.7c.1 0 .1 0 .2.099 0 0 .1.098.1.197v.198l-.1.098h-.599z" fill="#FFF"/></svg>